<svg width="35" height="31" viewBox="0 0 35 31" fill="none" xmlns="http://www.w3.org/2000/svg">
<path d="M17.5 0.333313L0 8.49998L4.66667 10.6V14.5666C3.26667 15.0333 2.33333 16.4333 2.33333 17.8333C2.33333 19.2333 3.26667 20.6333 4.66667 21.1V21.3333L2.56667 26.2333C1.86667 28.3333 2.33333 30.6666 5.83333 30.6666C9.33333 30.6666 9.8 28.3333 9.1 26.2333L7 21.3333C8.4 20.6333 9.33333 19.4666 9.33333 17.8333C9.33333 16.2 8.4 15.0333 7 14.5666V11.7666L17.5 16.6666L35 8.49998L17.5 0.333313ZM27.7667 15.5L17.2667 20.1666L11.6667 17.6V17.8333C11.6667 19.4666 10.9667 20.8666 9.8 22.0333L11.2 25.3V25.5333C11.4333 26.4666 11.6667 27.4 11.4333 28.3333C13.0667 29.0333 14.9333 29.5 17.2667 29.5C24.9667 29.5 27.7667 24.8333 27.7667 22.5V15.5Z" fill="#FFB200"/>
</svg>
